<svg
  width="1435"
  height="1444"
  viewBox="0 0 1435 1444"
  fill="none"
  xmlns="http://www.w3.org/2000/svg"
>
  <mask
    id="mask0_16_10"
    style="mask-type:alpha"
    maskUnits="userSpaceOnUse"
    x="0"
    y="0"
    width="1435"
    height="1444"
  >
    <path
      d="M717.5 1442.5C1172.5 1187 1434 697 1434 199C981 -65 454 -65 1 199C0.999939 648.5 237 1177.5 717.5 1442.5Z"
      fill="#aaa"
    />
  </mask>
  <g mask="url(#mask0_16_10)">
    <rect x="-97.5001" y="-73.5" width="1631" height="1590" fill="#0C0C0C" />
    <path
      d="M528 252.5C528 252.5 265 294 21.4999 460.5V770.5L208.5 958.5C283.5 797.5 375 715.5 506.5 644C353 826 324.5 980.667 320 1109L315 1141L215 1218.5L717.5 1443.5C402.5 1242.5 476.5 930 506.5 846.5C490 907.5 539.5 1115 629 1182C580 968.5 668.167 869.333 729.5 797.5C671.5 804.7 605.667 851.833 580 874.5C566.5 811 597.5 707.5 679.5 654.5C647.9 689.3 636.667 746.333 635 770.5C835 640.9 951 809 942.5 913.5C1014.1 879.9 1044 795.167 1050 757C1096.4 729.4 1102 697.167 1099 684.5C1099 684.5 853.5 748.5 870 645C870 645 929 498 1145.5 513C1145.5 513 1211.5 518 1173.5 622C1173.5 622 1231.5 598.5 1246.5 530.5C1246.5 530.5 1300 495 1308 408C1308 408 1189.5 308.5 1016.5 321.5C1016.5 321.5 995.5 386.5 894 301C894 301 997.5 287.5 1086.5 301C1086.5 301 1086.5 227 711 227C711 227 671.5 163 566.5 163C566.5 163 566.5 293 653.5 369C653.5 369 558 337 528 252.5Z"
      fill="#FFEB3B"
    />
  </g>
</svg>