<svg width="10" height="11" viewBox="0 0 10 11" fill="none" xmlns="http://www.w3.org/2000/svg">
<path d="M5.17802 0.504444C5.24665 0.504444 5.31476 0.504444 5.38235 0.504444C4.71444 1.16762 4.28513 2.05991 4.16904 3.02623C4.05294 3.99255 4.2574 4.9718 4.74688 5.79374C5.23636 6.61568 5.97991 7.22836 6.84827 7.52526C7.71664 7.82216 8.65491 7.78453 9.5 7.41889C9.17492 8.25472 8.64361 8.98057 7.96274 9.51903C7.28187 10.0575 6.47698 10.3884 5.63393 10.4763C4.79089 10.5643 3.9413 10.4061 3.17581 10.0186C2.41031 9.63103 1.75762 9.02872 1.28735 8.27589C0.817087 7.52305 0.546885 6.64793 0.50557 5.74387C0.464255 4.83981 0.653378 3.94072 1.05276 3.14251C1.45215 2.34429 2.04682 1.6769 2.77334 1.21152C3.49985 0.746135 4.33097 0.500218 5.17802 0.5V0.504444Z" fill="#3A3A3A" stroke="#3A3A3A" stroke-linecap="round" stroke-linejoin="round"/>
</svg>
