<svg width="102" height="12" viewBox="0 0 102 12" fill="none" xmlns="http://www.w3.org/2000/svg">
<g clip-path="url(#clip0_4509_61)">
<path d="M12.4603 0L5.94 11.9893H0L5.09163 2.628C5.88088 1.176 7.84988 0 9.49025 0H12.4603ZM27.027 2.99733C27.027 1.34133 28.3566 0 29.997 0C31.6374 0 32.967 1.34133 32.967 2.99733C32.967 4.65333 31.6374 5.99467 29.997 5.99467C28.3566 5.99467 27.027 4.65333 27.027 2.99733ZM13.574 0H19.514L12.9938 11.9893H7.05375L13.574 0ZM20.5893 0H26.5293L21.439 9.36133C20.6498 10.8133 18.6794 11.9893 17.039 11.9893H14.069L20.5893 0Z" fill="#3A3A3A"/>
</g>
<g clip-path="url(#clip1_4509_61)">
<path d="M43 11.408L45.2524 0.208H47.1818L49.873 7.064L52.5725 0.208H54.5019L56.7542 11.408H54.419L53.1356 4.984L50.6597 11.296H49.0863L46.6187 4.984L45.3269 11.408H43ZM62.2643 11.616C61.4804 11.616 60.7434 11.4667 60.0533 11.168C59.3632 10.864 58.7561 10.4453 58.2316 9.912C57.7071 9.37867 57.2959 8.76267 56.9978 8.064C56.6997 7.36 56.5506 6.608 56.5506 5.808C56.5506 5.008 56.6997 4.25867 56.9978 3.56C57.2959 2.856 57.7071 2.23734 58.2316 1.704C58.7561 1.17067 59.3632 0.754667 60.0533 0.456001C60.7434 0.152 61.4804 0 62.2643 0C63.0538 0 63.7934 0.152 64.4835 0.456001C65.1736 0.754667 65.7808 1.17067 66.3053 1.704C66.8298 2.23734 67.2382 2.856 67.5308 3.56C67.8289 4.25867 67.978 5.008 67.978 5.808C67.978 6.608 67.8289 7.36 67.5308 8.064C67.2382 8.76267 66.8298 9.37867 66.3053 9.912C65.7808 10.4453 65.1736 10.864 64.4835 11.168C63.7934 11.4667 63.0538 11.616 62.2643 11.616ZM62.2643 9.408C62.7335 9.408 63.1752 9.31467 63.5892 9.128C64.0032 8.936 64.3676 8.67467 64.6823 8.344C64.9969 8.01334 65.2425 7.632 65.4192 7.2C65.6014 6.768 65.6925 6.304 65.6925 5.808C65.6925 5.312 65.6014 4.848 65.4192 4.416C65.2425 3.97867 64.9969 3.59734 64.6823 3.272C64.3676 2.94134 64.0032 2.68267 63.5892 2.496C63.1752 2.304 62.7335 2.208 62.2643 2.208C61.7951 2.208 61.3534 2.304 60.9394 2.496C60.5253 2.68267 60.161 2.94134 59.8463 3.272C59.5317 3.60267 59.2832 3.984 59.1011 4.416C58.9244 4.848 58.8361 5.312 58.8361 5.808C58.8361 6.304 58.9244 6.77067 59.1011 7.208C59.2832 7.64 59.5317 8.02134 59.8463 8.352C60.161 8.67734 60.5253 8.936 60.9394 9.128C61.3534 9.31467 61.7951 9.408 62.2643 9.408ZM76.5815 0.208V2.416H73.1699V11.408H70.8844V2.416H67.4727V0.208H76.5815ZM77.3248 11.408V0.208H79.6103V11.408H77.3248ZM86.0707 11.616C85.2867 11.616 84.5497 11.4667 83.8597 11.168C83.1696 10.864 82.5624 10.4453 82.038 9.912C81.5135 9.37867 81.1023 8.76267 80.8042 8.064C80.5061 7.36 80.357 6.608 80.357 5.808C80.357 5.008 80.5061 4.25867 80.8042 3.56C81.1023 2.856 81.5135 2.23734 82.038 1.704C82.5624 1.17067 83.1696 0.754667 83.8597 0.456001C84.5497 0.152 85.2867 0 86.0707 0C86.86 0 87.5998 0.152 88.2899 0.456001C88.9799 0.754667 89.5872 1.17067 90.1117 1.704C90.636 2.23734 91.0446 2.856 91.3372 3.56C91.6353 4.25867 91.7844 5.008 91.7844 5.808C91.7844 6.608 91.6353 7.36 91.3372 8.064C91.0446 8.76267 90.636 9.37867 90.1117 9.912C89.5872 10.4453 88.9799 10.864 88.2899 11.168C87.5998 11.4667 86.86 11.616 86.0707 11.616ZM86.0707 9.408C86.5399 9.408 86.9816 9.31467 87.3956 9.128C87.8096 8.936 88.174 8.67467 88.4887 8.344C88.8033 8.01334 89.0489 7.632 89.2256 7.2C89.4078 6.768 89.4989 6.304 89.4989 5.808C89.4989 5.312 89.4078 4.848 89.2256 4.416C89.0489 3.97867 88.8033 3.59734 88.4887 3.272C88.174 2.94134 87.8096 2.68267 87.3956 2.496C86.9816 2.304 86.5399 2.208 86.0707 2.208C85.6014 2.208 85.1598 2.304 84.7458 2.496C84.3317 2.68267 83.9674 2.94134 83.6527 3.272C83.3381 3.60267 83.0896 3.984 82.9075 4.416C82.7308 4.848 82.6425 5.312 82.6425 5.808C82.6425 6.304 82.7308 6.77067 82.9075 7.208C83.0896 7.64 83.3381 8.02134 83.6527 8.352C83.9674 8.67734 84.3317 8.936 84.7458 9.128C85.1598 9.31467 85.6014 9.408 86.0707 9.408ZM92.0794 11.408V0.208H94.547L99.0683 7.416V0.208H101.354V11.408H98.8861L94.3648 4.2V11.408H92.0794Z" fill="#3A3A3A"/>
</g>
<defs>
<clipPath id="clip0_4509_61">
<rect width="33" height="12" fill="white"/>
</clipPath>
<clipPath id="clip1_4509_61">
<rect width="59" height="12" fill="white" transform="translate(43)"/>
</clipPath>
</defs>
</svg>
