<svg width="80" height="16" viewBox="0 0 80 16" fill="none" xmlns="http://www.w3.org/2000/svg">
<g clip-path="url(#clip0_4509_30)">
<mask id="mask0_4509_30" style="mask-type:luminance" maskUnits="userSpaceOnUse" x="0" y="0" width="16" height="16">
<path d="M16 0H0V16H16V0Z" fill="white"/>
</mask>
<g mask="url(#mask0_4509_30)">
<path d="M7.47607 0.00430629C7.44167 0.00743433 7.33213 0.0183825 7.2336 0.0262027C4.96109 0.23109 2.83245 1.45729 1.48426 3.34194C0.733527 4.38984 0.253373 5.5785 0.0719453 6.83753C0.00782013 7.27707 0 7.40687 0 8.00273C0 8.59867 0.00782013 8.72847 0.0719453 9.16793C0.506745 12.1725 2.64477 14.6968 5.54448 15.6321C6.06373 15.7994 6.61115 15.9136 7.2336 15.9824C7.47607 16.009 8.52393 16.009 8.7664 15.9824C9.84087 15.8635 10.7511 15.5977 11.6489 15.1394C11.7865 15.069 11.8131 15.0503 11.7943 15.0346C11.7818 15.0252 11.1953 14.2385 10.4915 13.2876L9.21213 11.5593L7.609 9.18673C6.72687 7.88233 6.00117 6.81567 5.99492 6.81567C5.98866 6.81407 5.98241 7.86827 5.97927 9.1554C5.97459 11.4092 5.97302 11.4999 5.94487 11.5531C5.90421 11.6297 5.87292 11.661 5.80723 11.6954C5.75719 11.7205 5.71339 11.7251 5.47723 11.7251H5.20665L5.1347 11.6798C5.08778 11.6501 5.05337 11.6109 5.02991 11.5656L4.99707 11.4952L5.00019 8.35933L5.00489 5.2219L5.05337 5.16091C5.0784 5.12806 5.13157 5.08583 5.16911 5.0655C5.23323 5.03422 5.25826 5.03109 5.52883 5.03109C5.8479 5.03109 5.90107 5.0436 5.98397 5.13431C6.00743 5.15934 6.87547 6.46687 7.914 8.04187C8.95247 9.6168 10.3726 11.7673 11.0702 12.8231L12.3371 14.7421L12.4012 14.6999C12.9689 14.3308 13.5695 13.8053 14.0449 13.2579C15.0569 12.0958 15.7091 10.6788 15.9281 9.16793C15.9922 8.72847 16 8.59867 16 8.00273C16 7.40687 15.9922 7.27707 15.9281 6.83753C15.4933 3.83305 13.3552 1.30871 10.4555 0.373417C9.94407 0.20763 9.3998 0.093456 8.78987 0.0246387C8.63967 0.0089984 7.60587 -0.00820594 7.47607 0.00430629ZM10.7511 4.84341C10.8262 4.88095 10.8872 4.95289 10.9091 5.02796C10.9216 5.06863 10.9247 5.93823 10.9216 7.89793L10.9169 10.7101L10.4211 9.94993L9.92373 9.18987V7.14567C9.92373 5.82405 9.93 5.08114 9.9394 5.04517C9.9644 4.95758 10.0191 4.88877 10.0942 4.8481C10.1583 4.81525 10.1818 4.81213 10.4274 4.81213C10.6589 4.81213 10.6995 4.81525 10.7511 4.84341Z" fill="#3A3A3A"/>
</g>
</g>
<g clip-path="url(#clip1_4509_30)">
<path d="M61.2266 2.4043H70.9808V4.20011H67.1114V13.6477H65.1766V4.20011H61.2266V2.4043Z" fill="#3A3A3A"/>
<path d="M45.1839 2.4043V4.20011H37.3652V7.08903H43.653V8.88485H37.3652V11.8519H45.1839V13.6477H35.4305V4.20011H35.4297V2.4043H45.1839Z" fill="#3A3A3A"/>
<path d="M50.0554 2.41016H47.5234L56.5923 13.6535H59.1316L54.5966 8.03571L59.1244 2.41873L56.5923 2.42264L53.329 6.46534L50.0554 2.41016Z" fill="#3A3A3A"/>
<path d="M52.653 10.4417L51.385 8.86914L47.5156 13.6624H50.0548L52.653 10.4417Z" fill="#3A3A3A"/>
<path fill-rule="evenodd" clip-rule="evenodd" d="M35.4995 13.6484L26.4184 2.40039H24V13.6438H25.9347V4.80366L33.069 13.6484H35.4995Z" fill="#3A3A3A"/>
<path d="M71.415 13.5806C71.2733 13.5806 71.1528 13.5316 71.0519 13.4337C70.951 13.3358 70.9011 13.2172 70.9024 13.0768C70.9011 12.9402 70.951 12.8229 71.0519 12.725C71.1528 12.6271 71.2733 12.5781 71.415 12.5781C71.5513 12.5781 71.6706 12.6271 71.7715 12.725C71.8738 12.8229 71.9249 12.9402 71.9263 13.0768C71.9249 13.1695 71.9013 13.2546 71.8541 13.3306C71.8056 13.4079 71.7441 13.4685 71.6666 13.5123C71.5906 13.5574 71.5067 13.5806 71.415 13.5806Z" fill="#3A3A3A"/>
<path d="M74.7177 8.84375H75.5751V12.1384C75.5738 12.4412 75.5081 12.7002 75.3798 12.918C75.25 13.1357 75.0704 13.3019 74.8397 13.4192C74.6103 13.5351 74.3415 13.5944 74.0361 13.5944C73.7568 13.5944 73.5065 13.5442 73.2836 13.4463C73.0607 13.3483 72.8838 13.2014 72.754 13.0082C72.6228 12.8149 72.5586 12.5739 72.5586 12.2853H73.4174C73.4186 12.4116 73.4475 12.5211 73.5025 12.6126C73.5575 12.7041 73.6335 12.7736 73.7306 12.8226C73.8288 12.8716 73.9417 12.8961 74.0687 12.8961C74.2065 12.8961 74.3244 12.8677 74.4201 12.8097C74.5158 12.753 74.5892 12.668 74.6404 12.5546C74.6901 12.4425 74.7164 12.3034 74.7177 12.1384V8.84375Z" fill="#3A3A3A"/>
<path d="M79.1038 10.1309C79.083 9.93121 78.9911 9.7753 78.8312 9.66449C78.6699 9.55239 78.4616 9.49699 78.2059 9.49699C78.0263 9.49699 77.8717 9.52405 77.7432 9.57688C77.6147 9.63099 77.5151 9.70314 77.4469 9.79463C77.3788 9.88611 77.3447 9.99048 77.342 10.1077C77.342 10.2057 77.3656 10.2907 77.4115 10.3616C77.4574 10.4337 77.5189 10.4943 77.599 10.5433C77.6776 10.5935 77.7654 10.6347 77.8612 10.6682C77.9581 10.7017 78.0552 10.7301 78.1521 10.7533L78.5991 10.8628C78.7788 10.904 78.9532 10.9594 79.1196 11.0303C79.2861 11.0999 79.4369 11.1888 79.5692 11.2957C79.7017 11.4027 79.8065 11.5315 79.8839 11.6823C79.9612 11.833 80.0006 12.0095 80.0006 12.2131C80.0006 12.4876 79.9298 12.7285 79.7868 12.9373C79.644 13.1447 79.4381 13.3071 79.1681 13.4243C78.8993 13.5403 78.5743 13.5996 78.1915 13.5996C77.8218 13.5996 77.4993 13.5429 77.228 13.4295C76.9554 13.3174 76.7429 13.1524 76.5895 12.936C76.4362 12.7195 76.3536 12.4554 76.3418 12.1448H77.1913C77.2031 12.3072 77.2556 12.4425 77.3447 12.552C77.4351 12.6602 77.553 12.7401 77.6973 12.7942C77.8429 12.8471 78.0053 12.8741 78.185 12.8741C78.3724 12.8741 78.5376 12.8458 78.6804 12.7904C78.822 12.735 78.9334 12.6577 79.0135 12.5572C79.0948 12.4579 79.1354 12.3407 79.1367 12.2067C79.1354 12.0843 79.0986 11.9825 79.0278 11.9026C78.9557 11.8227 78.8561 11.7557 78.7289 11.7016C78.6006 11.6475 78.451 11.5985 78.2806 11.556L77.738 11.4194C77.346 11.3202 77.0353 11.1695 76.8084 10.9672C76.5804 10.7649 76.4676 10.4969 76.4676 10.1606C76.4676 9.88484 76.5436 9.6426 76.6971 9.43515C76.8491 9.22771 77.0576 9.06664 77.3211 8.95196C77.5859 8.83601 77.8848 8.7793 78.2177 8.7793C78.5559 8.7793 78.8521 8.83601 79.1078 8.95196C79.3634 9.06664 79.5641 9.22642 79.7095 9.42999C79.855 9.63357 79.9311 9.86679 79.935 10.1309H79.1038Z" fill="#3A3A3A"/>
</g>
<defs>
<clipPath id="clip0_4509_30">
<rect width="16" height="16" fill="white"/>
</clipPath>
<clipPath id="clip1_4509_30">
<rect width="56" height="11.2" fill="white" transform="translate(24 2.40039)"/>
</clipPath>
</defs>
</svg>
