<svg width="77" height="17" viewBox="0 0 77 17" fill="none" xmlns="http://www.w3.org/2000/svg">
<g clip-path="url(#clip0_4509_49)">
<path d="M19.3566 10.5687L18.6151 9.31874L15.0292 11.4346L19.0126 6.52202L19.6148 6.18027L19.4659 5.96377L19.7391 5.6261L18.4827 4.61171L17.9064 5.32246L6.29655 11.9017L10.5898 6.9019L18.5851 2.65646L17.8259 1.2336L13.4712 3.54559L15.6151 1.04843L14.386 0L9.56021 5.62201L4.76577 8.16683L8.43636 3.46798L10.736 2.30926L10.0067 0.870057L3.30463 4.24953L5.1331 1.90759L3.85631 0.917712L0 5.86029L0.0600845 5.90794L0.779729 7.32808L5.05663 5.17268L1.15935 10.1616L1.79706 10.6572L2.17669 11.3679L6.67891 8.97833L1.72195 14.7528L2.94958 15.7999L3.19676 15.5126L15.1563 8.71418L11.1852 13.6118L11.2508 13.6649L11.2439 13.6677L12.0673 15.0551L17.3479 11.9398L15.3146 15.1178L16.6774 15.9838L19.9152 10.924L19.3566 10.5687Z" fill="#3A3A3A"/>
</g>
<mask id="mask0_4509_49" style="mask-type:luminance" maskUnits="userSpaceOnUse" x="30" y="0" width="47" height="17">
<path d="M77 0.841797H30V16.8418H77V0.841797Z" fill="white"/>
</mask>
<g mask="url(#mask0_4509_49)">
<path d="M34.8482 6.29107C33.6101 5.3931 32.3559 4.69664 32.3559 3.68319C32.3559 3.07511 32.9148 2.45172 33.685 2.45172C35.0742 2.45172 35.8898 3.84228 36.6907 5.58165H37.1894V1.58203H33.7157C30.8463 1.58203 30 3.24834 30 4.55287C30 6.26279 31.4654 7.27742 33.1261 8.46529C34.2893 9.29137 35.2708 10.0597 35.2708 10.9436C35.2708 11.9005 34.5915 12.4508 33.7304 12.4508C32.8092 12.4508 31.4494 11.2912 30.4987 8.88599H30V13.3205H33.9724C36.4193 13.3205 37.6427 11.4656 37.6881 9.97251C37.7483 8.23314 36.1932 7.26328 34.8482 6.29225V6.29107Z" fill="#3A3A3A"/>
<path d="M45.6631 11.9423V7.26155C45.6631 5.23228 44.3488 4.69727 42.4461 4.69727H39.0633L39.0781 8.00161H39.637C40.2266 6.59573 41.0717 5.56696 41.9781 5.56696C42.7631 5.56696 43.1107 6.21863 43.1107 6.89977V7.5373C41.8418 8.26204 38.459 8.87012 38.459 11.0726C38.459 12.3477 39.3802 13.4059 40.7241 13.4059C41.8872 13.4059 42.6881 12.6812 43.0959 11.8268C43.1709 12.5374 43.6548 13.3199 44.7579 13.3199H46.4947V12.6824C45.9359 12.6824 45.6644 12.3206 45.6644 11.9435L45.6631 11.9423ZM43.0652 11.2176C42.8233 11.5511 42.4461 11.9282 41.9929 11.9282C41.3591 11.9282 40.9513 11.465 40.9513 10.5376C40.9513 9.47937 42.4314 8.79823 43.0665 8.2915V11.2187L43.0652 11.2176Z" fill="#3A3A3A"/>
<path d="M59.1795 3.7985C60.1462 3.7985 60.7505 3.14682 60.7505 2.30542C60.7505 1.46401 60.1462 0.841797 59.1795 0.841797C58.2128 0.841797 57.5938 1.46519 57.5938 2.30542C57.5938 3.14565 58.2435 3.7985 59.1795 3.7985Z" fill="#3A3A3A"/>
<path d="M74.1941 4.69661V5.33415C75.146 5.33415 75.4175 5.81259 74.9495 7.1018L73.8169 10.0432L72.3675 6.46427C72.0347 5.76899 72.2164 5.33415 72.9117 5.33415V4.69661H65.7075V1.79883H65.0282C64.8317 2.78401 63.7593 4.69661 61.9316 4.69661V5.33415H63.1095V11.2899C63.1095 12.2892 63.4572 13.4205 65.4815 13.4205H68.6235V10.1457H68.0647C67.8387 10.914 67.3695 12.4495 66.3573 12.4495C65.7984 12.4495 65.7075 11.8556 65.7075 11.3771V5.6099H68.5928C68.9405 5.6099 69.3028 5.6535 69.4835 6.05888L72.5493 13.3333C71.9597 14.6226 70.9488 14.8264 69.1357 14.2902V16.8404C69.6038 16.8404 70.8125 16.8545 71.0237 16.7968C72.2164 16.4633 73.0321 14.2172 73.3649 13.3475L75.9628 6.60921C76.2503 5.87033 76.491 5.33415 76.9897 5.33415V4.69661H74.1953H74.1941Z" fill="#3A3A3A"/>
<path d="M55.6751 11.9429V7.00169C55.6751 5.45087 54.9049 4.52344 53.3793 4.52344C52.0355 4.52344 51.2568 5.41787 50.6611 6.24985V4.69785H47.2168V5.33538C47.8064 5.33538 48.0631 5.68302 48.0631 6.0884V11.9429C48.0631 12.3341 47.7609 12.6818 47.2168 12.6818V13.3193H51.5062V12.6818C50.962 12.6818 50.6599 12.3341 50.6599 11.9429V7.04058C51.0075 6.59631 51.4092 6.11787 52.0797 6.11787C52.7136 6.11787 53.0771 6.61045 53.0771 7.20439V11.9429C53.0771 12.3341 52.7751 12.6818 52.2308 12.6818V13.3193H56.5202V12.6818C55.9761 12.6818 55.6739 12.3341 55.6739 11.9429H55.6751Z" fill="#3A3A3A"/>
<path d="M60.6904 11.9423V4.69727H57.2461V5.3348C57.8358 5.3348 58.0925 5.68244 58.0925 6.08783V11.9423C58.0925 12.3335 57.7903 12.6812 57.2461 12.6812V13.3187H61.5355V12.6812C60.9913 12.6812 60.6892 12.3335 60.6892 11.9423H60.6904Z" fill="#3A3A3A"/>
</g>
<defs>
<clipPath id="clip0_4509_49">
<rect width="20" height="16" fill="white"/>
</clipPath>
</defs>
</svg>
