<svg width="106" height="20" viewBox="0 0 106 20" fill="none" xmlns="http://www.w3.org/2000/svg">
<g clip-path="url(#clip0_4509_56)">
<path d="M16.25 10L10 16.25" stroke="#3A3A3A" stroke-width="2" stroke-linecap="round" stroke-linejoin="round"/>
<path d="M15 3.125L3.125 15" stroke="#3A3A3A" stroke-width="2" stroke-linecap="round" stroke-linejoin="round"/>
</g>
<g clip-path="url(#clip1_4509_56)">
<path d="M37.2841 8.77841L35.4091 8.98296C35.3561 8.79357 35.2633 8.61554 35.1307 8.44887C35.0019 8.2822 34.8277 8.14773 34.608 8.04546C34.3883 7.94319 34.1193 7.89205 33.8011 7.89205C33.3731 7.89205 33.0133 7.98485 32.7216 8.17046C32.4337 8.35607 32.2917 8.5966 32.2955 8.89205C32.2917 9.14584 32.3845 9.35228 32.5739 9.51137C32.767 9.67046 33.0852 9.80114 33.5284 9.90341L35.017 10.2216C35.8428 10.3996 36.4564 10.6818 36.858 11.0682C37.2633 11.4545 37.4678 11.9602 37.4716 12.5852C37.4678 13.1344 37.3068 13.6193 36.9886 14.0397C36.6742 14.4564 36.2367 14.7822 35.6761 15.017C35.1155 15.2518 34.4716 15.3693 33.7443 15.3693C32.6761 15.3693 31.8163 15.1458 31.1648 14.6988C30.5133 14.2481 30.125 13.6212 30 12.8182L32.0057 12.625C32.0966 13.0189 32.2898 13.3162 32.5852 13.517C32.8807 13.7178 33.2652 13.8181 33.7386 13.8181C34.2273 13.8181 34.6193 13.7178 34.9148 13.517C35.214 13.3162 35.3636 13.0681 35.3636 12.7727C35.3636 12.5227 35.267 12.3163 35.0739 12.1534C34.8845 11.9905 34.589 11.8655 34.1875 11.7784L32.6989 11.4659C31.8617 11.2917 31.2424 10.9981 30.8409 10.5852C30.4394 10.1686 30.2405 9.64205 30.2443 9.00569C30.2405 8.46781 30.3864 8.0019 30.6818 7.60796C30.9811 7.21023 31.3958 6.90341 31.9261 6.6875C32.4602 6.46781 33.0758 6.35796 33.7727 6.35796C34.7955 6.35796 35.6004 6.57576 36.1875 7.01137C36.7784 7.44697 37.1439 8.03599 37.2841 8.77841ZM41.2245 10.0852V15.1988H39.1676V3.5625H41.179V7.95455H41.2813C41.4858 7.46213 41.8021 7.07387 42.2302 6.78978C42.662 6.5019 43.2112 6.35796 43.8779 6.35796C44.4839 6.35796 45.0124 6.48485 45.4631 6.73864C45.9139 6.99243 46.2624 7.36364 46.5086 7.85228C46.7586 8.34091 46.8836 8.93749 46.8836 9.64205V15.1988H44.8267V9.96023C44.8267 9.37311 44.6752 8.91667 44.3722 8.59091C44.073 8.26137 43.6525 8.0966 43.1108 8.0966C42.7472 8.0966 42.4214 8.17614 42.1336 8.33523C41.8495 8.49054 41.626 8.71591 41.4631 9.01137C41.304 9.30682 41.2245 9.66478 41.2245 10.0852ZM51.4915 15.375C50.9385 15.375 50.4404 15.2765 49.9972 15.0795C49.5578 14.8787 49.2093 14.5833 48.9517 14.1931C48.698 13.803 48.5711 13.3219 48.5711 12.75C48.5711 12.2576 48.662 11.8504 48.8438 11.5284C49.0256 11.2064 49.2737 10.9489 49.5881 10.7557C49.9025 10.5625 50.2567 10.4167 50.6506 10.3182C51.0483 10.2159 51.4593 10.142 51.8836 10.0966C52.3949 10.0436 52.8097 9.99622 53.1279 9.95455C53.4461 9.9091 53.6771 9.84091 53.8211 9.75C53.9688 9.65531 54.0427 9.50947 54.0427 9.3125V9.27841C54.0427 8.85038 53.9158 8.51894 53.662 8.2841C53.4082 8.04925 53.0427 7.93182 52.5654 7.93182C52.0616 7.93182 51.662 8.04167 51.3665 8.26137C51.0749 8.48107 50.8779 8.74054 50.7756 9.03978L48.8552 8.76705C49.0067 8.23674 49.2567 7.79357 49.6052 7.4375C49.9536 7.07766 50.3798 6.80872 50.8836 6.63069C51.3874 6.44887 51.9442 6.35796 52.554 6.35796C52.9745 6.35796 53.393 6.4072 53.8097 6.50569C54.2264 6.60417 54.6071 6.76705 54.9517 6.99432C55.2964 7.21781 55.573 7.52273 55.7813 7.9091C55.9934 8.29546 56.0995 8.77841 56.0995 9.35796V15.1988H54.1222V14H54.054C53.929 14.2424 53.7529 14.4697 53.5256 14.6818C53.3021 14.8901 53.0199 15.0587 52.679 15.1875C52.3419 15.3125 51.9461 15.375 51.4915 15.375ZM52.0256 13.8636C52.4385 13.8636 52.7964 13.7822 53.0995 13.6193C53.4025 13.4526 53.6355 13.2329 53.7983 12.9602C53.965 12.6875 54.0483 12.3902 54.0483 12.0682V11.0398C53.9839 11.0928 53.8741 11.142 53.7188 11.1875C53.5673 11.233 53.3968 11.2727 53.2074 11.3068C53.018 11.3409 52.8305 11.3712 52.6449 11.3977C52.4593 11.4242 52.2983 11.447 52.162 11.4659C51.8552 11.5076 51.5805 11.5758 51.3381 11.6705C51.0957 11.7652 50.9044 11.8977 50.7642 12.0682C50.6241 12.2348 50.554 12.4508 50.554 12.7159C50.554 13.0947 50.6923 13.3806 50.9688 13.5738C51.2453 13.767 51.5976 13.8636 52.0256 13.8636ZM61.4063 15.3522C60.7207 15.3522 60.1071 15.1761 59.5654 14.8238C59.0237 14.4715 58.5957 13.9602 58.2813 13.2897C57.9669 12.6193 57.8097 11.8049 57.8097 10.8466C57.8097 9.8769 57.9688 9.05872 58.287 8.39205C58.6089 7.7216 59.0427 7.21591 59.5881 6.875C60.1336 6.53031 60.7415 6.35796 61.412 6.35796C61.9233 6.35796 62.3438 6.44508 62.6733 6.61932C63.0029 6.78978 63.2642 6.99622 63.4574 7.23864C63.6506 7.47728 63.8002 7.70266 63.9063 7.91478H63.9915V3.5625H66.054V15.1988H64.0313V13.8238H63.9063C63.8002 14.0359 63.6468 14.2613 63.4461 14.5C63.2453 14.7348 62.9802 14.9356 62.6506 15.1022C62.3211 15.2689 61.9063 15.3522 61.4063 15.3522ZM61.9802 13.6647C62.4158 13.6647 62.787 13.5473 63.0938 13.3125C63.4006 13.0738 63.6336 12.7424 63.7927 12.3182C63.9517 11.8939 64.0313 11.3996 64.0313 10.8352C64.0313 10.2708 63.9517 9.78031 63.7927 9.36364C63.6374 8.94697 63.4063 8.62311 63.0995 8.39205C62.7964 8.16099 62.4233 8.04546 61.9802 8.04546C61.5218 8.04546 61.1392 8.16478 60.8324 8.40341C60.5256 8.64205 60.2946 8.9716 60.1392 9.39205C59.9839 9.8125 59.9063 10.2936 59.9063 10.8352C59.9063 11.3807 59.9839 11.8674 60.1392 12.2955C60.2983 12.7197 60.5313 13.0549 60.8381 13.3011C61.1487 13.5435 61.5294 13.6647 61.9802 13.6647ZM72.0526 15.3693C71.1814 15.3693 70.4333 15.178 69.8083 14.7954C69.1871 14.4128 68.7079 13.8844 68.3708 13.2102C68.0374 12.5322 67.8708 11.7519 67.8708 10.8693C67.8708 9.98296 68.0412 9.20076 68.3821 8.52273C68.7231 7.84091 69.2041 7.31061 69.8253 6.93182C70.4503 6.54925 71.189 6.35796 72.0412 6.35796C72.7496 6.35796 73.3765 6.48864 73.9219 6.75C74.4712 7.00758 74.9087 7.37311 75.2344 7.8466C75.5602 8.31629 75.7458 8.86554 75.7912 9.49432H73.8253C73.7458 9.07387 73.5564 8.72349 73.2571 8.44319C72.9617 8.1591 72.5659 8.01705 72.0696 8.01705C71.6492 8.01705 71.2799 8.13069 70.9617 8.35796C70.6435 8.58144 70.3954 8.90341 70.2174 9.32387C70.0431 9.74432 69.956 10.2481 69.956 10.8352C69.956 11.4299 70.0431 11.9413 70.2174 12.3693C70.3916 12.7936 70.6359 13.1212 70.9503 13.3522C71.2685 13.5795 71.6416 13.6931 72.0696 13.6931C72.3727 13.6931 72.6435 13.6363 72.8821 13.5227C73.1246 13.4053 73.3272 13.2367 73.4901 13.017C73.653 12.7973 73.7647 12.5303 73.8253 12.2159H75.7912C75.742 12.8333 75.5602 13.3806 75.2458 13.8579C74.9314 14.3314 74.5034 14.7026 73.9617 14.9715C73.42 15.2367 72.7837 15.3693 72.0526 15.3693ZM79.537 10.0852V15.1988H77.4802V6.4716H79.4461V7.95455H79.5483C79.7491 7.46591 80.0692 7.07766 80.5086 6.78978C80.9517 6.5019 81.4991 6.35796 82.1506 6.35796C82.7529 6.35796 83.2775 6.48675 83.7245 6.74432C84.1752 7.0019 84.5237 7.375 84.7699 7.86364C85.0199 8.35228 85.143 8.94508 85.1392 9.64205V15.1988H83.0824V9.96023C83.0824 9.3769 82.9309 8.92046 82.6279 8.59091C82.3286 8.26137 81.9139 8.0966 81.3836 8.0966C81.0237 8.0966 80.7036 8.17614 80.4233 8.33523C80.1468 8.49054 79.929 8.71591 79.7699 9.01137C79.6146 9.30682 79.537 9.66478 79.537 10.0852ZM91.9802 3.01705L88.2302 16.9488H86.429L90.179 3.01705H91.9802ZM98.8552 11.5284V6.4716H100.912V15.1988H98.9177V13.6477H98.8267C98.6298 14.1363 98.3059 14.5359 97.8552 14.8465C97.4082 15.1572 96.8571 15.3125 96.2017 15.3125C95.6298 15.3125 95.1241 15.1856 94.6847 14.9318C94.2491 14.6742 93.9082 14.3011 93.662 13.8125C93.4158 13.32 93.2927 12.7254 93.2927 12.0284V6.4716H95.3495V11.7102C95.3495 12.2633 95.501 12.7027 95.804 13.0284C96.1071 13.3541 96.5048 13.517 96.9972 13.517C97.3002 13.517 97.5938 13.4431 97.8779 13.2954C98.162 13.1477 98.3949 12.928 98.5767 12.6364C98.7624 12.3409 98.8552 11.9716 98.8552 11.5284ZM103.027 15.1988V6.4716H105.084V15.1988H103.027ZM104.061 5.23296C103.735 5.23296 103.455 5.12501 103.22 4.9091C102.985 4.6894 102.868 4.42614 102.868 4.11932C102.868 3.80871 102.985 3.54545 103.22 3.32955C103.455 3.10985 103.735 3 104.061 3C104.391 3 104.671 3.10985 104.902 3.32955C105.137 3.54545 105.254 3.80871 105.254 4.11932C105.254 4.42614 105.137 4.6894 104.902 4.9091C104.671 5.12501 104.391 5.23296 104.061 5.23296Z" fill="#3A3A3A"/>
</g>
<defs>
<clipPath id="clip0_4509_56">
<rect width="20" height="20" fill="white"/>
</clipPath>
<clipPath id="clip1_4509_56">
<rect width="76" height="14" fill="white" transform="translate(30 3)"/>
</clipPath>
</defs>
</svg>
