<svg width="117" height="13" viewBox="0 0 117 13" fill="none" xmlns="http://www.w3.org/2000/svg">
<path d="M5.5 4.33333C6.23333 1.44444 8.06667 0 11 0C15.4 0 15.95 3.25 18.15 3.79167C19.6167 4.15278 20.9 3.61111 22 2.16667C21.2667 5.05556 19.4333 6.5 16.5 6.5C12.1 6.5 11.55 3.25 9.35 2.70833C7.88333 2.34722 6.6 2.88889 5.5 4.33333ZM0 10.8333C0.733333 7.94444 2.56667 6.5 5.5 6.5C9.9 6.5 10.45 9.75 12.65 10.2917C14.1167 10.6528 15.4 10.1111 16.5 8.66667C15.7667 11.5556 13.9333 13 11 13C6.6 13 6.05 9.75 3.85 9.20833C2.38333 8.84722 1.1 9.38889 0 10.8333Z" fill="#3A3A3A"/>
<path d="M37.3722 5.89948H35.2946V9.84052C35.2946 10.8914 35.9992 10.8744 37.3722 10.8091V12.4017C34.5915 12.7307 33.485 11.9748 33.485 9.84052V5.89948H31.9434V4.1906H33.485V1.98538L35.2946 1.46066V4.1906H37.3722V5.89948ZM45.2936 4.1906H47.1032V12.4017H45.2936V11.219C44.6568 12.0897 43.667 12.6158 42.3602 12.6158C40.0823 12.6158 38.1891 10.7269 38.1891 8.29615C38.1891 5.84984 40.0823 3.97788 42.3602 3.97788C43.667 3.97788 44.6568 4.5026 45.2936 5.35632V4.1906ZM42.6455 10.924C44.154 10.924 45.2936 9.8235 45.2936 8.29615C45.2936 6.7688 44.154 5.66832 42.6455 5.66832C41.137 5.66832 39.9988 6.7688 39.9988 8.29615C39.9988 9.8235 41.137 10.924 42.6455 10.924ZM50.1188 2.95965C49.482 2.95965 48.9619 2.43351 48.9619 1.82654C48.9633 1.67764 48.9936 1.53015 49.0512 1.39259C49.1094 1.25504 49.1946 1.13014 49.3019 1.02502C49.4092 0.919902 49.5365 0.836623 49.6765 0.779946C49.8162 0.72322 49.9675 0.693439 50.1188 0.693439C50.2701 0.693439 50.4199 0.72322 50.5611 0.779946C50.7009 0.836672 50.8277 0.920343 50.9357 1.02529C51.0423 1.13165 51.1273 1.25644 51.1864 1.39259C51.2441 1.53015 51.2743 1.67764 51.2743 1.82654C51.2743 2.43351 50.7556 2.95965 50.1188 2.95965ZM49.214 12.4017V4.1906H51.0236V12.4017H49.214ZM53.1185 12.4017V0.414062H54.9281V12.4017H53.1185ZM66.6734 4.1906H68.5838L65.953 12.4017H64.1765L62.4346 6.86807L60.6754 12.4017H58.8989L56.268 4.1906H58.1785L59.8037 9.85612L61.5629 4.1906H63.289L65.0309 9.85612L66.6734 4.1906ZM70.8286 2.95965C70.1917 2.95965 69.6731 2.43351 69.6731 1.82654C69.6731 1.67764 69.7033 1.53015 69.761 1.39259C69.82 1.25644 69.905 1.13165 70.0116 1.02529C70.1197 0.920343 70.2465 0.836672 70.3863 0.779946C70.5274 0.72322 70.6773 0.693439 70.8286 0.693439C71.1347 0.693509 71.4284 0.812809 71.6455 1.02529C71.7536 1.13165 71.8386 1.25644 71.8962 1.39259C71.9553 1.53015 71.9855 1.67764 71.9855 1.82654C71.9855 2.43351 71.4654 2.95965 70.8286 2.95965ZM69.9238 12.4017V4.1906H71.7334V12.4017H69.9238ZM81.4529 7.36017V12.4017H79.6433V7.5417C79.6433 6.2923 78.9056 5.6357 77.7659 5.6357C76.5758 5.6357 75.6379 6.32634 75.6379 8.00118V12.4017H73.8283V4.1906H75.6379V5.24145C76.1912 4.38773 77.096 3.97788 78.2356 3.97788C80.1115 3.97788 81.4529 5.22585 81.4529 7.36017ZM90.0313 0.906161H91.8409V12.4017H90.0313V11.219C89.3945 12.0897 88.4061 12.6158 87.0993 12.6158C84.82 12.6158 82.9268 10.7269 82.9268 8.29615C82.9268 5.84984 84.82 3.97788 87.0993 3.97788C88.4061 3.97788 89.3945 4.5026 90.0313 5.35632V0.906161ZM87.3846 10.924C88.8916 10.924 90.0313 9.8235 90.0313 8.29615C90.0313 6.7688 88.8916 5.66832 87.3846 5.66832C85.8761 5.66832 84.7364 6.7688 84.7364 8.29615C84.7364 9.8235 85.8761 10.924 87.3846 10.924ZM93.4834 8.29615C93.4834 5.84984 95.3766 3.97788 97.9066 3.97788C99.5491 3.97788 100.973 4.81459 101.643 6.0966L100.085 6.98294C99.7162 6.21147 98.895 5.71795 97.8893 5.71795C96.4154 5.71795 95.293 6.81844 95.293 8.29615C95.293 9.77387 96.4154 10.8744 97.8893 10.8744C98.895 10.8744 99.7162 10.3652 100.118 9.61078L101.677 10.4801C100.973 11.7777 99.5491 12.6158 97.9066 12.6158C95.3766 12.6158 93.4834 10.7269 93.4834 8.29615ZM109.166 10.0859C109.166 11.7281 107.708 12.6158 105.899 12.6158C104.223 12.6158 103.017 11.8756 102.481 10.6942L104.039 9.80649C104.308 10.5468 104.978 10.9892 105.899 10.9892C106.704 10.9892 107.324 10.7269 107.324 10.0703C107.324 8.60815 102.817 9.42926 102.817 6.48943C102.817 4.94648 104.174 3.97788 105.883 3.97788C107.256 3.97788 108.395 4.60187 108.982 5.68533L107.458 6.52346C107.156 5.88246 106.57 5.58748 105.883 5.58748C105.229 5.58748 104.66 5.86544 104.66 6.45681C104.66 7.95154 109.166 7.04818 109.166 10.0859ZM116.892 10.0859C116.892 11.7281 115.434 12.6158 113.624 12.6158C111.948 12.6158 110.741 11.8756 110.205 10.6942L111.764 9.80649C112.032 10.5468 112.702 10.9892 113.624 10.9892C114.428 10.9892 115.048 10.7269 115.048 10.0703C115.048 8.60815 110.541 9.42926 110.541 6.48943C110.541 4.94648 111.898 3.97788 113.607 3.97788C114.981 3.97788 116.121 4.60187 116.707 5.68533L115.182 6.52346C114.88 5.88246 114.294 5.58748 113.607 5.58748C112.954 5.58748 112.384 5.86544 112.384 6.45681C112.384 7.95154 116.892 7.04818 116.892 10.0859Z" fill="#3A3A3A"/>
</svg>
