<svg width="73" height="19" viewBox="0 0 73 19" fill="none" xmlns="http://www.w3.org/2000/svg">
<path fill-rule="evenodd" clip-rule="evenodd" d="M4.89057 18.5781L0.400391 0.400391L18.4004 5.5827L4.89057 18.5781Z" stroke="#3A3A3A" stroke-width="0.8" stroke-miterlimit="10" stroke-linejoin="round"/>
<path fill-rule="evenodd" clip-rule="evenodd" d="M9.39606 2.99219L11.6395 12.0837L2.64453 9.49174L9.39606 2.99219Z" stroke="#3A3A3A" stroke-width="0.8" stroke-miterlimit="10" stroke-linejoin="round"/>
<path fill-rule="evenodd" clip-rule="evenodd" d="M7.16509 10.7234L6.05078 6.20703L10.5197 7.48988L7.16509 10.7234Z" stroke="#3A3A3A" stroke-width="0.8" stroke-miterlimit="10" stroke-linejoin="round"/>
<path fill-rule="evenodd" clip-rule="evenodd" d="M4.93465 1.69727L6.04896 6.21363L1.58008 4.93078L4.93465 1.69727Z" stroke="#3A3A3A" stroke-width="0.8" stroke-miterlimit="10" stroke-linejoin="round"/>
<path fill-rule="evenodd" clip-rule="evenodd" d="M13.8741 4.27344L14.9884 8.7898L10.5195 7.50695L13.8741 4.27344Z" stroke="#3A3A3A" stroke-width="0.8" stroke-miterlimit="10" stroke-linejoin="round"/>
<path fill-rule="evenodd" clip-rule="evenodd" d="M7.16707 10.7285L8.28138 15.2449L3.8125 13.962L7.16707 10.7285Z" stroke="#3A3A3A" stroke-width="0.8" stroke-miterlimit="10" stroke-linejoin="round"/>
<path d="M29.4664 13.3544C28.1224 13.3544 27.4924 12.7664 27.4924 11.4504V6.97039H26.4004V5.93439H27.4924V4.19839H28.6684V5.93439H30.6424V6.97039H28.6684V11.4224C28.6684 12.0944 28.9624 12.3184 29.5784 12.3184H30.6424V13.3544H29.4664ZM32.0617 13.3544V3.41439H33.2377V7.09639C33.6157 6.18639 34.4557 5.76639 35.4777 5.76639C37.0737 5.76639 37.9557 6.92839 37.9557 8.58039V13.3544H36.7797V8.91639C36.7797 7.48839 36.2617 6.80239 35.2257 6.80239C34.0217 6.80239 33.2377 7.55839 33.2377 8.93039V13.3544H32.0617ZM39.9706 13.3544V5.93439H41.0066L41.0486 7.30639C41.3146 6.36839 41.9026 5.93439 42.8126 5.93439H43.5406V7.05439H42.8266C41.7066 7.05439 41.1466 7.65639 41.1466 8.87439V13.3544H39.9706ZM47.6603 13.5224C45.5603 13.5224 44.2583 11.9964 44.2583 9.64439C44.2583 7.29239 45.5603 5.76639 47.6043 5.76639C49.5363 5.76639 50.8803 7.16639 50.8803 9.6584V10.0084H45.4903C45.5743 11.6044 46.3723 12.4024 47.6603 12.4024C48.6263 12.4024 49.2563 11.9124 49.5083 11.1564L50.7683 11.2544C50.3763 12.5844 49.2283 13.5224 47.6603 13.5224ZM45.4903 8.97239H49.5923C49.4803 7.54439 48.6963 6.88639 47.6043 6.88639C46.4563 6.88639 45.6863 7.60039 45.4903 8.97239ZM55.4189 13.5224C53.3189 13.5224 52.0169 11.9964 52.0169 9.64439C52.0169 7.29239 53.3189 5.76639 55.3629 5.76639C57.2949 5.76639 58.6389 7.16639 58.6389 9.6584V10.0084H53.2489C53.3329 11.6044 54.1309 12.4024 55.4189 12.4024C56.3849 12.4024 57.0149 11.9124 57.2669 11.1564L58.5269 11.2544C58.1349 12.5844 56.9869 13.5224 55.4189 13.5224ZM53.2489 8.97239H57.3509C57.2389 7.54439 56.4549 6.88639 55.3629 6.88639C54.2149 6.88639 53.4449 7.60039 53.2489 8.97239ZM59.9121 13.3544V11.7724H61.4941V13.3544H59.9121ZM63.6129 4.77239V3.40039H64.8449V4.77239H63.6129ZM62.2269 15.4544V14.4184H62.8289C63.3189 14.4184 63.6409 14.2224 63.6409 13.6064V5.93439H64.8169V13.6624C64.8169 14.9784 64.2849 15.4544 62.9409 15.4544H62.2269ZM69.6665 13.5224C67.6225 13.5224 66.5725 12.4724 66.4605 11.0164L67.6925 10.9324C67.8325 11.8284 68.3505 12.4024 69.6665 12.4024C70.6745 12.4024 71.2485 12.0944 71.2485 11.3664C71.2485 10.7784 70.9545 10.5264 69.4425 10.2464C67.3705 9.85439 66.7545 9.21039 66.7545 8.03439C66.7545 6.71839 67.7765 5.76639 69.5685 5.76639C71.5285 5.76639 72.3545 6.94239 72.5085 8.14639L71.2765 8.23039C71.2065 7.53039 70.7585 6.88639 69.5405 6.88639C68.4765 6.88639 67.9865 7.34839 67.9865 7.97839C67.9865 8.70639 68.3645 8.98639 69.6665 9.21039C71.8505 9.58839 72.4805 10.1904 72.4805 11.3664C72.4805 12.7384 71.3045 13.5224 69.6665 13.5224Z" fill="#3A3A3A"/>
</svg>
