<svg width="73" height="16" viewBox="0 0 73 16" fill="none" xmlns="http://www.w3.org/2000/svg">
<path fill-rule="evenodd" clip-rule="evenodd" d="M8 1L16 15H0L8 1Z" fill="#3A3A3A"/>
<g clip-path="url(#clip0_4509_35)">
<path fill-rule="evenodd" clip-rule="evenodd" d="M31.934 13.8717L37.8986 2.12109H35.3187L31.2042 10.6548L27.0897 2.12109H24.5098L30.4743 13.8717H31.934ZM72.5824 2.12109V13.8717H70.4466V2.12109H72.5824ZM60.6935 9.48585C60.6935 8.57009 60.877 7.76464 61.244 7.06954C61.6111 6.37442 62.1229 5.83932 62.7791 5.46418C63.4354 5.08904 64.2031 4.90144 65.0819 4.90144C65.8606 4.90144 66.5614 5.07801 67.1844 5.43107C67.8073 5.78414 68.3023 6.30824 68.6694 7.00333C69.0364 7.69846 69.2258 8.54801 69.2368 9.55207V10.0651H62.9462C62.9904 10.7933 63.1963 11.3671 63.5633 11.7863C63.9417 12.1946 64.448 12.3987 65.0819 12.3987C65.4823 12.3987 65.8496 12.2884 66.1831 12.0677C66.5168 11.847 66.7672 11.5491 66.934 11.174L69.1201 11.3395C68.8529 12.167 68.3524 12.829 67.6183 13.3255C66.8839 13.822 66.0386 14.0703 65.0819 14.0703C64.2031 14.0703 63.4354 13.8827 62.7791 13.5076C62.1229 13.1324 61.6111 12.5973 61.244 11.9022C60.877 11.2071 60.6935 10.4017 60.6935 9.48585ZM67.0341 8.65837C66.9563 7.94117 66.7395 7.41711 66.3834 7.08608C66.0273 6.74405 65.5937 6.57302 65.0819 6.57302C64.4922 6.57302 64.014 6.75508 63.647 7.11918C63.2796 7.48329 63.0518 7.99635 62.9627 8.65837H67.0341ZM57.0895 7.08608C57.4456 7.384 57.6679 7.79774 57.757 8.32734L59.9594 8.21149C59.8815 7.53846 59.6537 6.95369 59.2753 6.45716C58.897 5.96067 58.4078 5.58003 57.8068 5.31522C57.2174 5.03937 56.5667 4.90144 55.8546 4.90144C54.9757 4.90144 54.2084 5.08904 53.5518 5.46418C52.8956 5.83932 52.3838 6.37442 52.0167 7.06954C51.6497 7.76464 51.4661 8.57009 51.4661 9.48585C51.4661 10.4017 51.6497 11.2071 52.0167 11.9022C52.3838 12.5973 52.8956 13.1324 53.5518 13.5076C54.2084 13.8827 54.9757 14.0703 55.8546 14.0703C56.5887 14.0703 57.2562 13.9323 57.8569 13.6565C58.4579 13.3696 58.9471 12.9669 59.3254 12.4483C59.7038 11.9298 59.9316 11.3229 60.0094 10.6278L57.7903 10.5285C57.7125 11.1133 57.4953 11.5657 57.1396 11.8856C56.7835 12.1946 56.3551 12.349 55.8546 12.349C55.1651 12.349 54.631 12.1008 54.2526 11.6043C53.8746 11.1078 53.6856 10.4017 53.6856 9.48585C53.6856 8.57009 53.8746 7.86395 54.2526 7.36743C54.631 6.87094 55.1651 6.62269 55.8546 6.62269C56.3331 6.62269 56.7444 6.77715 57.0895 7.08608ZM46.2547 5.09967H48.2424L48.2998 6.7879C48.4409 6.31005 48.6369 5.93895 48.8882 5.67461C49.2525 5.29134 49.7607 5.09967 50.412 5.09967H51.2237V6.90665H50.3955C49.9317 6.90665 49.5509 6.97235 49.2525 7.10376C48.9655 7.23517 48.7447 7.44325 48.5902 7.728C48.4467 8.01272 48.3749 8.37412 48.3749 8.81216V13.8717H46.2547V5.09967ZM37.0868 7.06954C36.7197 7.76464 36.5362 8.57009 36.5362 9.48585C36.5362 10.4017 36.7197 11.2071 37.0868 11.9022C37.4539 12.5973 37.9656 13.1324 38.622 13.5076C39.2783 13.8827 40.0459 14.0703 40.9247 14.0703C41.8812 14.0703 42.7268 13.822 43.4609 13.3255C44.1953 12.829 44.6958 12.167 44.9627 11.3395L42.7769 11.174C42.6101 11.5491 42.3597 11.847 42.026 12.0677C41.6922 12.2884 41.3252 12.3987 40.9247 12.3987C40.2906 12.3987 39.7845 12.1946 39.4062 11.7863C39.0391 11.3671 38.8333 10.7933 38.7888 10.0651H45.0797V9.55207C45.0684 8.54801 44.8793 7.69846 44.5123 7.00333C44.1452 6.30824 43.6502 5.78414 43.0273 5.43107C42.4043 5.07801 41.7035 4.90144 40.9247 4.90144C40.0459 4.90144 39.2783 5.08904 38.622 5.46418C37.9656 5.83932 37.4539 6.37442 37.0868 7.06954ZM42.2263 7.08608C42.5821 7.41711 42.7992 7.94117 42.877 8.65837H38.8055C38.8945 7.99635 39.1226 7.48329 39.4896 7.11918C39.8568 6.75508 40.3351 6.57302 40.9247 6.57302C41.4363 6.57302 41.8702 6.74405 42.2263 7.08608Z" fill="#3A3A3A"/>
</g>
<defs>
<clipPath id="clip0_4509_35">
<rect width="49" height="12.9434" fill="white" transform="translate(24 1.52734)"/>
</clipPath>
</defs>
</svg>
