<?xml version="1.0" encoding="UTF-8"?>
<!DOCTYPE svg PUBLIC "-//W3C//DTD SVG 1.1//EN" "http://www.w3.org/Graphics/SVG/1.1/DTD/svg11.dtd">
<svg xmlns="http://www.w3.org/2000/svg" version="1.1" width="979px" height="1064px" style="shape-rendering:geometricPrecision; text-rendering:geometricPrecision; image-rendering:optimizeQuality; fill-rule:evenodd; clip-rule:evenodd" xmlns:xlink="http://www.w3.org/1999/xlink">
<g><path style="opacity:0.931" fill="#fefffe" d="M 488.5,-0.5 C 489.167,-0.5 489.833,-0.5 490.5,-0.5C 653.127,134.49 815.794,269.49 978.5,404.5C 978.5,489.167 978.5,573.833 978.5,658.5C 815.425,793.034 652.758,928.034 490.5,1063.5C 489.833,1063.5 489.167,1063.5 488.5,1063.5C 325.816,928.153 162.816,793.153 -0.5,658.5C -0.5,573.833 -0.5,489.167 -0.5,404.5C 162.816,269.847 325.816,134.847 488.5,-0.5 Z M 487.5,19.5 C 489.783,19.6079 491.783,20.4412 493.5,22C 650,151.833 806.5,281.667 963,411.5C 963.667,491.5 963.667,571.5 963,651.5C 805.259,782.286 647.426,912.953 489.5,1043.5C 331.209,913.211 173.209,782.544 15.5,651.5C 14.3334,571.502 14.1667,491.502 15,411.5C 172.982,281.346 330.482,150.679 487.5,19.5 Z"/></g>
<g><path style="opacity:0.991" fill="#fefffe" d="M 488.5,72.5 C 509.135,87.8328 529.468,103.666 549.5,120C 551.329,121.113 552.163,122.613 552,124.5C 427.075,226.047 302.242,327.714 177.5,429.5C 281.164,514.326 384.997,598.993 489,683.5C 489.75,682.874 490.584,682.374 491.5,682C 594.54,597.823 697.54,513.656 800.5,429.5C 780.465,412.724 760.299,396.058 740,379.5C 656.682,447.651 573.015,515.318 489,582.5C 426.178,531.68 363.344,480.847 300.5,430C 404.833,345 509.167,260 613.5,175C 615.279,175.044 616.945,175.711 618.5,177C 638.046,193.385 657.713,209.552 677.5,225.5C 672.342,230.49 667.009,235.323 661.5,240C 584,302.833 506.5,365.667 429,428.5C 428.837,430.387 429.671,431.887 431.5,433C 450.683,448.093 469.683,463.427 488.5,479C 489.167,479.667 489.833,479.667 490.5,479C 573.388,411.107 656.555,343.607 740,276.5C 802.967,327.297 865.8,378.297 928.5,429.5C 782.448,549.052 635.948,668.052 489,786.5C 342.353,668.093 196.186,549.093 50.5,429.5C 196.519,310.477 342.519,191.477 488.5,72.5 Z"/></g>
<g><path style="opacity:0.983" fill="#d2d3d3" d="M 50.5,451.5 C 196.814,570.143 343.148,688.81 489.5,807.5C 635.812,689.023 781.978,570.356 928,451.5C 928.833,478.506 928.667,505.506 927.5,532.5C 781.5,651.167 635.5,769.833 489.5,888.5C 343.188,770.023 197.022,651.356 51,532.5C 50.5,505.502 50.3334,478.502 50.5,451.5 Z"/></g>
<g><path style="opacity:0.983" fill="#949798" d="M 50.5,553.5 C 196.793,671.954 342.959,790.621 489,909.5C 635.022,790.644 781.188,671.977 927.5,553.5C 928.667,580.16 928.833,606.827 928,633.5C 782.109,752.859 635.942,871.859 489.5,990.5C 343.355,872.189 197.355,753.689 51.5,635C 50.505,607.907 50.1717,580.741 50.5,553.5 Z"/></g>
</svg>
